<svg width="1383" height="692" viewBox="0 0 1383 692" fill="none" xmlns="http://www.w3.org/2000/svg">
<circle cx="806" cy="576" r="99" stroke="#BDBDBD" stroke-width="32"/>
<circle cx="1036" cy="231" r="214" stroke="#BDBDBD" stroke-width="32"/>
<path d="M691 1H1381V691H691V1Z" stroke="#4F4F4F" stroke-miterlimit="10"/>
<path d="M1381 576H691" stroke="#4F4F4F" stroke-miterlimit="10"/>
<path d="M1381 461H691" stroke="#4F4F4F" stroke-miterlimit="10"/>
<path d="M1381 346H691" stroke="#4F4F4F" stroke-miterlimit="10"/>
<path d="M1381 231H691" stroke="#4F4F4F" stroke-miterlimit="10"/>
<path d="M1381 116H691" stroke="#4F4F4F" stroke-miterlimit="10"/>
<path d="M806 1V691" stroke="#4F4F4F" stroke-miterlimit="10"/>
<path d="M921 1V691" stroke="#4F4F4F" stroke-miterlimit="10"/>
<path d="M1036 1V691" stroke="#4F4F4F" stroke-miterlimit="10"/>
<path d="M1151 1V691" stroke="#4F4F4F" stroke-miterlimit="10"/>
<path d="M1266 1V691" stroke="#4F4F4F" stroke-miterlimit="10"/>
<path d="M1 1H691V691H1V1Z" stroke="#4F4F4F" stroke-miterlimit="10"/>
<path d="M691 576H0.999977" stroke="#4F4F4F" stroke-miterlimit="10"/>
<path d="M691 461H0.999977" stroke="#4F4F4F" stroke-miterlimit="10"/>
<path d="M691 346H0.999977" stroke="#4F4F4F" stroke-miterlimit="10"/>
<path d="M691 231H0.999977" stroke="#4F4F4F" stroke-miterlimit="10"/>
<path d="M691 116H0.999977" stroke="#4F4F4F" stroke-miterlimit="10"/>
<path d="M116 1V691" stroke="#4F4F4F" stroke-miterlimit="10"/>
<path d="M231 1V691" stroke="#4F4F4F" stroke-miterlimit="10"/>
<path d="M346 1V691" stroke="#4F4F4F" stroke-miterlimit="10"/>
<path d="M461 1V691" stroke="#4F4F4F" stroke-miterlimit="10"/>
<path d="M576 1V691" stroke="#4F4F4F" stroke-miterlimit="10"/>
<path d="M116 519H231" stroke="#4F4F4F"/>
<path d="M173 461L230 518.5L173 576" stroke="#4F4F4F"/>
<path d="M1267 116L1382 1" stroke="#4F4F4F"/>
<path d="M1382 116L1267 1" stroke="#4F4F4F"/>
<circle cx="807" cy="231" r="12" fill="#111111"/>
<circle cx="807" cy="346" r="12" fill="#111111"/>
<circle cx="807" cy="461" r="12" fill="#111111"/>
<circle cx="921" cy="231" r="12" fill="#111111"/>
<circle cx="921" cy="346" r="12" fill="#111111"/>
<circle cx="921" cy="461" r="12" fill="#111111"/>
<circle cx="1035" cy="231" r="12" fill="#111111"/>
<circle cx="1035" cy="346" r="12" fill="#111111"/>
<circle cx="1035" cy="461" r="12" fill="#111111"/>
</svg>
