<svg width="153" height="138" viewBox="0 0 153 138" fill="none" xmlns="http://www.w3.org/2000/svg">
<mask id="path-1-inside-1" fill="white">
<path d="M145.298 96.0448C145.298 95.3916 145.039 94.7652 144.577 94.3034C144.115 93.8415 143.489 93.5821 142.836 93.5821H132.985C132.548 93.5935 132.122 93.7237 131.754 93.9589C131.385 93.7237 130.959 93.5935 130.522 93.5821H123.134V91.1194C129.67 91.1194 132.985 88.6321 132.985 83.7313V73.8806C132.985 71.268 131.947 68.7624 130.1 66.9151C128.252 65.0677 125.747 64.0298 123.134 64.0298V59.1045C123.134 58.4513 122.875 57.8249 122.413 57.3631C121.951 56.9012 121.325 56.6418 120.672 56.6418C120.018 56.6418 119.392 56.9012 118.93 57.3631C118.468 57.8249 118.209 58.4513 118.209 59.1045V64.0298C115.596 64.0298 113.091 65.0677 111.243 66.9151C109.396 68.7624 108.358 71.268 108.358 73.8806V83.7313C108.358 88.6321 111.673 91.1194 118.209 91.1194V93.5821H110.821C110.384 93.5935 109.958 93.7237 109.59 93.9589C109.221 93.7237 108.795 93.5935 108.358 93.5821H98.5075C97.8543 93.5821 97.2279 93.8415 96.7661 94.3034C96.3042 94.7652 96.0448 95.3916 96.0448 96.0448V103.433C96.0448 104.086 96.3042 104.712 96.7661 105.174C97.2279 105.636 97.8543 105.896 98.5075 105.896H100.97V118.209C100.97 118.862 101.23 119.488 101.691 119.95C102.153 120.412 102.78 120.672 103.433 120.672C104.086 120.672 104.712 120.412 105.174 119.95C105.636 119.488 105.896 118.862 105.896 118.209V105.896H108.358V115.746C108.358 116.399 108.618 117.026 109.079 117.488C109.541 117.949 110.168 118.209 110.821 118.209V125.597H105.896C105.242 125.597 104.616 125.856 104.154 126.318C103.692 126.78 103.433 127.407 103.433 128.06V132.985H49.2537V128.06C49.2537 127.407 48.9943 126.78 48.5324 126.318C48.0706 125.856 47.4442 125.597 46.791 125.597H41.8657V118.209C42.5188 118.209 43.1452 117.949 43.6071 117.488C44.0689 117.026 44.3284 116.399 44.3284 115.746V105.896H46.791V118.209C46.791 118.862 47.0505 119.488 47.5123 119.95C47.9742 120.412 48.6006 120.672 49.2537 120.672C49.9069 120.672 50.5333 120.412 50.9951 119.95C51.457 119.488 51.7164 118.862 51.7164 118.209V105.896H54.1791C54.8322 105.896 55.4586 105.636 55.9205 105.174C56.3823 104.712 56.6418 104.086 56.6418 103.433V96.0448C56.6418 95.3916 56.3823 94.7652 55.9205 94.3034C55.4586 93.8415 54.8322 93.5821 54.1791 93.5821H44.3284C43.8913 93.5935 43.4656 93.7237 43.097 93.9589C42.7284 93.7237 42.3027 93.5935 41.8657 93.5821H34.4776V91.1194C41.0136 91.1194 44.3284 88.6321 44.3284 83.7313V73.8806C44.3284 71.268 43.2905 68.7624 41.4431 66.9151C39.5958 65.0677 37.0902 64.0298 34.4776 64.0298V59.1045C34.4776 58.4513 34.2181 57.8249 33.7563 57.3631C33.2945 56.9012 32.6681 56.6418 32.0149 56.6418C31.3618 56.6418 30.7354 56.9012 30.2735 57.3631C29.8117 57.8249 29.5522 58.4513 29.5522 59.1045V64.0298C26.9397 64.0298 24.4341 65.0677 22.5867 66.9151C20.7393 68.7624 19.7015 71.268 19.7015 73.8806V83.7313C19.7015 88.6321 23.0163 91.1194 29.5522 91.1194V93.5821H22.1642C21.7271 93.5935 21.3014 93.7237 20.9328 93.9589C20.5642 93.7237 20.1385 93.5935 19.7015 93.5821H9.85075C9.1976 93.5821 8.57121 93.8415 8.10936 94.3034C7.64752 94.7652 7.38806 95.3916 7.38806 96.0448V103.433C7.38806 104.086 7.64752 104.712 8.10936 105.174C8.57121 105.636 9.1976 105.896 9.85075 105.896H12.3134V118.209C12.3134 118.862 12.5729 119.488 13.0347 119.95C13.4966 120.412 14.123 120.672 14.7761 120.672C15.4293 120.672 16.0557 120.412 16.5175 119.95C16.9793 119.488 17.2388 118.862 17.2388 118.209V105.896H19.7015V115.746C19.7015 116.399 19.961 117.026 20.4228 117.488C20.8846 117.949 21.511 118.209 22.1642 118.209V125.597H17.2388C16.5857 125.597 15.9593 125.856 15.4974 126.318C15.0356 126.78 14.7761 127.407 14.7761 128.06V132.985H2.46269C1.80954 132.985 1.18315 133.245 0.721304 133.706C0.259461 134.168 0 134.795 0 135.448C0 136.101 0.259461 136.727 0.721304 137.189C1.18315 137.651 1.80954 137.91 2.46269 137.91H140.373C141.026 137.91 141.653 137.651 142.115 137.189C142.576 136.727 142.836 136.101 142.836 135.448C142.836 134.795 142.576 134.168 142.115 133.706C141.653 133.245 141.026 132.985 140.373 132.985H137.91V128.06C137.91 127.407 137.651 126.78 137.189 126.318C136.727 125.856 136.101 125.597 135.448 125.597H130.522V118.209C131.176 118.209 131.802 117.949 132.264 117.488C132.726 117.026 132.985 116.399 132.985 115.746V105.896H135.448V118.209C135.448 118.862 135.707 119.488 136.169 119.95C136.631 120.412 137.257 120.672 137.91 120.672C138.564 120.672 139.19 120.412 139.652 119.95C140.114 119.488 140.373 118.862 140.373 118.209V105.896H142.836C143.489 105.896 144.115 105.636 144.577 105.174C145.039 104.712 145.298 104.086 145.298 103.433V96.0448ZM113.284 83.7313V78.806H115.746C116.399 78.806 117.026 78.5465 117.488 78.0847C117.949 77.6228 118.209 76.9964 118.209 76.3433C118.209 75.6901 117.949 75.0637 117.488 74.6019C117.026 74.14 116.399 73.8806 115.746 73.8806H113.284C113.284 72.5743 113.802 71.3215 114.726 70.3978C115.65 69.4741 116.903 68.9552 118.209 68.9552H123.134C124.441 68.9552 125.693 69.4741 126.617 70.3978C127.541 71.3215 128.06 72.5743 128.06 73.8806H125.597C124.944 73.8806 124.317 74.14 123.856 74.6019C123.394 75.0637 123.134 75.6901 123.134 76.3433C123.134 76.9964 123.394 77.6228 123.856 78.0847C124.317 78.5465 124.944 78.806 125.597 78.806H128.06V83.7313C128.06 84.8863 128.06 86.194 123.134 86.194H118.209C113.284 86.194 113.284 84.8863 113.284 83.7313ZM105.896 100.97H100.97V98.5075H105.896V100.97ZM46.791 98.5075H51.7164V100.97H46.791V98.5075ZM24.6269 83.7313V78.806H27.0896C27.7427 78.806 28.3691 78.5465 28.8309 78.0847C29.2928 77.6228 29.5522 76.9964 29.5522 76.3433C29.5522 75.6901 29.2928 75.0637 28.8309 74.6019C28.3691 74.14 27.7427 73.8806 27.0896 73.8806H24.6269C24.6269 72.5743 25.1458 71.3215 26.0695 70.3978C26.9932 69.4741 28.2459 68.9552 29.5522 68.9552H34.4776C35.7839 68.9552 37.0367 69.4741 37.9604 70.3978C38.8841 71.3215 39.403 72.5743 39.403 73.8806H36.9403C36.2872 73.8806 35.6608 74.14 35.1989 74.6019C34.7371 75.0637 34.4776 75.6901 34.4776 76.3433C34.4776 76.9964 34.7371 77.6228 35.1989 78.0847C35.6608 78.5465 36.2872 78.806 36.9403 78.806H39.403V83.7313C39.403 84.8863 39.403 86.194 34.4776 86.194H29.5522C24.6269 86.194 24.6269 84.8863 24.6269 83.7313ZM17.2388 100.97H12.3134V98.5075H17.2388V100.97ZM113.284 98.5075H128.06V113.284H113.284V98.5075ZM24.6269 98.5075H39.403V113.284H24.6269V98.5075ZM27.0896 118.209H36.9403V125.597C36.2872 125.597 35.6608 125.856 35.1989 126.318C34.7371 126.78 34.4776 127.407 34.4776 128.06V132.985H29.5522V128.06C29.5522 127.407 29.2928 126.78 28.8309 126.318C28.3691 125.856 27.7427 125.597 27.0896 125.597V118.209ZM19.7015 132.985V130.522H24.6269V132.985H19.7015ZM39.403 132.985V130.522H44.3284V132.985H39.403ZM108.358 132.985V130.522H113.284V132.985H108.358ZM132.985 130.522V132.985H128.06V130.522H132.985ZM125.597 125.597C124.944 125.597 124.317 125.856 123.856 126.318C123.394 126.78 123.134 127.407 123.134 128.06V132.985H118.209V128.06C118.209 127.407 117.949 126.78 117.488 126.318C117.026 125.856 116.399 125.597 115.746 125.597V118.209H125.597V125.597ZM140.373 100.97H135.448V98.5075H140.373V100.97Z"/>
</mask>
<path d="M145.298 96.0448C145.298 95.3916 145.039 94.7652 144.577 94.3034C144.115 93.8415 143.489 93.5821 142.836 93.5821H132.985C132.548 93.5935 132.122 93.7237 131.754 93.9589C131.385 93.7237 130.959 93.5935 130.522 93.5821H123.134V91.1194C129.67 91.1194 132.985 88.6321 132.985 83.7313V73.8806C132.985 71.268 131.947 68.7624 130.1 66.9151C128.252 65.0677 125.747 64.0298 123.134 64.0298V59.1045C123.134 58.4513 122.875 57.8249 122.413 57.3631C121.951 56.9012 121.325 56.6418 120.672 56.6418C120.018 56.6418 119.392 56.9012 118.93 57.3631C118.468 57.8249 118.209 58.4513 118.209 59.1045V64.0298C115.596 64.0298 113.091 65.0677 111.243 66.9151C109.396 68.7624 108.358 71.268 108.358 73.8806V83.7313C108.358 88.6321 111.673 91.1194 118.209 91.1194V93.5821H110.821C110.384 93.5935 109.958 93.7237 109.59 93.9589C109.221 93.7237 108.795 93.5935 108.358 93.5821H98.5075C97.8543 93.5821 97.2279 93.8415 96.7661 94.3034C96.3042 94.7652 96.0448 95.3916 96.0448 96.0448V103.433C96.0448 104.086 96.3042 104.712 96.7661 105.174C97.2279 105.636 97.8543 105.896 98.5075 105.896H100.97V118.209C100.97 118.862 101.23 119.488 101.691 119.95C102.153 120.412 102.78 120.672 103.433 120.672C104.086 120.672 104.712 120.412 105.174 119.95C105.636 119.488 105.896 118.862 105.896 118.209V105.896H108.358V115.746C108.358 116.399 108.618 117.026 109.079 117.488C109.541 117.949 110.168 118.209 110.821 118.209V125.597H105.896C105.242 125.597 104.616 125.856 104.154 126.318C103.692 126.78 103.433 127.407 103.433 128.06V132.985H49.2537V128.06C49.2537 127.407 48.9943 126.78 48.5324 126.318C48.0706 125.856 47.4442 125.597 46.791 125.597H41.8657V118.209C42.5188 118.209 43.1452 117.949 43.6071 117.488C44.0689 117.026 44.3284 116.399 44.3284 115.746V105.896H46.791V118.209C46.791 118.862 47.0505 119.488 47.5123 119.95C47.9742 120.412 48.6006 120.672 49.2537 120.672C49.9069 120.672 50.5333 120.412 50.9951 119.95C51.457 119.488 51.7164 118.862 51.7164 118.209V105.896H54.1791C54.8322 105.896 55.4586 105.636 55.9205 105.174C56.3823 104.712 56.6418 104.086 56.6418 103.433V96.0448C56.6418 95.3916 56.3823 94.7652 55.9205 94.3034C55.4586 93.8415 54.8322 93.5821 54.1791 93.5821H44.3284C43.8913 93.5935 43.4656 93.7237 43.097 93.9589C42.7284 93.7237 42.3027 93.5935 41.8657 93.5821H34.4776V91.1194C41.0136 91.1194 44.3284 88.6321 44.3284 83.7313V73.8806C44.3284 71.268 43.2905 68.7624 41.4431 66.9151C39.5958 65.0677 37.0902 64.0298 34.4776 64.0298V59.1045C34.4776 58.4513 34.2181 57.8249 33.7563 57.3631C33.2945 56.9012 32.6681 56.6418 32.0149 56.6418C31.3618 56.6418 30.7354 56.9012 30.2735 57.3631C29.8117 57.8249 29.5522 58.4513 29.5522 59.1045V64.0298C26.9397 64.0298 24.4341 65.0677 22.5867 66.9151C20.7393 68.7624 19.7015 71.268 19.7015 73.8806V83.7313C19.7015 88.6321 23.0163 91.1194 29.5522 91.1194V93.5821H22.1642C21.7271 93.5935 21.3014 93.7237 20.9328 93.9589C20.5642 93.7237 20.1385 93.5935 19.7015 93.5821H9.85075C9.1976 93.5821 8.57121 93.8415 8.10936 94.3034C7.64752 94.7652 7.38806 95.3916 7.38806 96.0448V103.433C7.38806 104.086 7.64752 104.712 8.10936 105.174C8.57121 105.636 9.1976 105.896 9.85075 105.896H12.3134V118.209C12.3134 118.862 12.5729 119.488 13.0347 119.95C13.4966 120.412 14.123 120.672 14.7761 120.672C15.4293 120.672 16.0557 120.412 16.5175 119.95C16.9793 119.488 17.2388 118.862 17.2388 118.209V105.896H19.7015V115.746C19.7015 116.399 19.961 117.026 20.4228 117.488C20.8846 117.949 21.511 118.209 22.1642 118.209V125.597H17.2388C16.5857 125.597 15.9593 125.856 15.4974 126.318C15.0356 126.78 14.7761 127.407 14.7761 128.06V132.985H2.46269C1.80954 132.985 1.18315 133.245 0.721304 133.706C0.259461 134.168 0 134.795 0 135.448C0 136.101 0.259461 136.727 0.721304 137.189C1.18315 137.651 1.80954 137.91 2.46269 137.91H140.373C141.026 137.91 141.653 137.651 142.115 137.189C142.576 136.727 142.836 136.101 142.836 135.448C142.836 134.795 142.576 134.168 142.115 133.706C141.653 133.245 141.026 132.985 140.373 132.985H137.91V128.06C137.91 127.407 137.651 126.78 137.189 126.318C136.727 125.856 136.101 125.597 135.448 125.597H130.522V118.209C131.176 118.209 131.802 117.949 132.264 117.488C132.726 117.026 132.985 116.399 132.985 115.746V105.896H135.448V118.209C135.448 118.862 135.707 119.488 136.169 119.95C136.631 120.412 137.257 120.672 137.91 120.672C138.564 120.672 139.19 120.412 139.652 119.95C140.114 119.488 140.373 118.862 140.373 118.209V105.896H142.836C143.489 105.896 144.115 105.636 144.577 105.174C145.039 104.712 145.298 104.086 145.298 103.433V96.0448ZM113.284 83.7313V78.806H115.746C116.399 78.806 117.026 78.5465 117.488 78.0847C117.949 77.6228 118.209 76.9964 118.209 76.3433C118.209 75.6901 117.949 75.0637 117.488 74.6019C117.026 74.14 116.399 73.8806 115.746 73.8806H113.284C113.284 72.5743 113.802 71.3215 114.726 70.3978C115.65 69.4741 116.903 68.9552 118.209 68.9552H123.134C124.441 68.9552 125.693 69.4741 126.617 70.3978C127.541 71.3215 128.06 72.5743 128.06 73.8806H125.597C124.944 73.8806 124.317 74.14 123.856 74.6019C123.394 75.0637 123.134 75.6901 123.134 76.3433C123.134 76.9964 123.394 77.6228 123.856 78.0847C124.317 78.5465 124.944 78.806 125.597 78.806H128.06V83.7313C128.06 84.8863 128.06 86.194 123.134 86.194H118.209C113.284 86.194 113.284 84.8863 113.284 83.7313ZM105.896 100.97H100.97V98.5075H105.896V100.97ZM46.791 98.5075H51.7164V100.97H46.791V98.5075ZM24.6269 83.7313V78.806H27.0896C27.7427 78.806 28.3691 78.5465 28.8309 78.0847C29.2928 77.6228 29.5522 76.9964 29.5522 76.3433C29.5522 75.6901 29.2928 75.0637 28.8309 74.6019C28.3691 74.14 27.7427 73.8806 27.0896 73.8806H24.6269C24.6269 72.5743 25.1458 71.3215 26.0695 70.3978C26.9932 69.4741 28.2459 68.9552 29.5522 68.9552H34.4776C35.7839 68.9552 37.0367 69.4741 37.9604 70.3978C38.8841 71.3215 39.403 72.5743 39.403 73.8806H36.9403C36.2872 73.8806 35.6608 74.14 35.1989 74.6019C34.7371 75.0637 34.4776 75.6901 34.4776 76.3433C34.4776 76.9964 34.7371 77.6228 35.1989 78.0847C35.6608 78.5465 36.2872 78.806 36.9403 78.806H39.403V83.7313C39.403 84.8863 39.403 86.194 34.4776 86.194H29.5522C24.6269 86.194 24.6269 84.8863 24.6269 83.7313ZM17.2388 100.97H12.3134V98.5075H17.2388V100.97ZM113.284 98.5075H128.06V113.284H113.284V98.5075ZM24.6269 98.5075H39.403V113.284H24.6269V98.5075ZM27.0896 118.209H36.9403V125.597C36.2872 125.597 35.6608 125.856 35.1989 126.318C34.7371 126.78 34.4776 127.407 34.4776 128.06V132.985H29.5522V128.06C29.5522 127.407 29.2928 126.78 28.8309 126.318C28.3691 125.856 27.7427 125.597 27.0896 125.597V118.209ZM19.7015 132.985V130.522H24.6269V132.985H19.7015ZM39.403 132.985V130.522H44.3284V132.985H39.403ZM108.358 132.985V130.522H113.284V132.985H108.358ZM132.985 130.522V132.985H128.06V130.522H132.985ZM125.597 125.597C124.944 125.597 124.317 125.856 123.856 126.318C123.394 126.78 123.134 127.407 123.134 128.06V132.985H118.209V128.06C118.209 127.407 117.949 126.78 117.488 126.318C117.026 125.856 116.399 125.597 115.746 125.597V118.209H125.597V125.597ZM140.373 100.97H135.448V98.5075H140.373V100.97Z" stroke="#4F4F4F" stroke-width="2" mask="url(#path-1-inside-1)"/>
<path d="M147.761 133.485H150.224C150.744 133.485 151.244 133.692 151.612 134.06C151.98 134.428 152.187 134.927 152.187 135.448C152.187 135.968 151.98 136.468 151.612 136.836C151.244 137.204 150.744 137.41 150.224 137.41H147.761C147.241 137.41 146.741 137.204 146.373 136.836C146.005 136.468 145.799 135.968 145.799 135.448C145.799 134.927 146.005 134.428 146.373 134.06C146.741 133.692 147.241 133.485 147.761 133.485Z" stroke="#4F4F4F"/>
<path d="M96.0448 73.3806H56.6418C54.815 73.3806 53.063 72.6549 51.7712 71.3631C50.4794 70.0714 49.7537 68.3194 49.7537 66.4925V7.38806C49.7537 5.56123 50.4794 3.80923 51.7712 2.51747C53.0629 1.2257 54.815 0.5 56.6418 0.5H96.0448C97.8716 0.5 99.6236 1.2257 100.915 2.51747C102.207 3.80923 102.933 5.56123 102.933 7.38806V66.4925C102.933 68.3194 102.207 70.0714 100.915 71.3631C99.6236 72.6549 97.8716 73.3806 96.0448 73.3806ZM54.5468 5.29312C53.9912 5.84874 53.6791 6.60231 53.6791 7.38806V66.4925C53.6791 67.2783 53.9912 68.0319 54.5468 68.5875C55.1025 69.1431 55.856 69.4552 56.6418 69.4552H96.0448C96.8305 69.4552 97.5841 69.1431 98.1397 68.5875C98.6953 68.0319 99.0075 67.2783 99.0075 66.4925V7.38806C99.0075 6.60231 98.6953 5.84874 98.1397 5.29312C97.5841 4.73751 96.8305 4.42537 96.0448 4.42537H56.6418C55.856 4.42537 55.1025 4.73751 54.5468 5.29312Z" stroke="#4F4F4F"/>
<path d="M34.4776 36.4403H33.9776V36.9403V41.8656C33.9776 42.3862 33.7708 42.8854 33.4028 43.2535C33.0347 43.6215 32.5355 43.8283 32.0149 43.8283C31.4944 43.8283 30.9952 43.6215 30.6271 43.2535C30.259 42.8854 30.0522 42.3862 30.0522 41.8656V34.4776C30.0522 33.957 30.259 33.4578 30.6271 33.0897C30.9952 32.7217 31.4944 32.5149 32.0149 32.5149H44.3284C44.8489 32.5149 45.3481 32.7217 45.7162 33.0897C46.0843 33.4578 46.2911 33.957 46.2911 34.4776C46.2911 34.9981 46.0843 35.4973 45.7162 35.8654C45.3481 36.2335 44.8489 36.4403 44.3284 36.4403H34.4776Z" stroke="#4F4F4F"/>
<path d="M118.709 36.9403V36.4403H118.209H108.358C107.838 36.4403 107.338 36.2335 106.97 35.8654C106.602 35.4973 106.396 34.9981 106.396 34.4776C106.396 33.957 106.602 33.4578 106.97 33.0897C107.338 32.7217 107.838 32.5149 108.358 32.5149H120.672C121.192 32.5149 121.691 32.7217 122.059 33.0897C122.428 33.4578 122.634 33.957 122.634 34.4776V51.7164C122.634 52.2369 122.428 52.7361 122.059 53.1042C121.691 53.4723 121.192 53.6791 120.672 53.6791C120.151 53.6791 119.652 53.4723 119.284 53.1042C118.916 52.7361 118.709 52.2369 118.709 51.7164V36.9403Z" stroke="#4F4F4F"/>
<path d="M33.4028 53.1042C33.0347 53.4723 32.5355 53.6791 32.0149 53.6791C31.4944 53.6791 30.9952 53.4723 30.6271 53.1042C30.259 52.7361 30.0522 52.2369 30.0522 51.7164V49.2537C30.0522 48.7332 30.259 48.2339 30.6271 47.8659C30.9952 47.4978 31.4944 47.291 32.0149 47.291C32.5355 47.291 33.0347 47.4978 33.4028 47.8659C33.7708 48.2339 33.9776 48.7332 33.9776 49.2537V51.7164C33.9776 52.2369 33.7708 52.7361 33.4028 53.1042Z" stroke="#4F4F4F"/>
<path d="M66.3547 47.291H66.9551L66.8464 46.7006C66.4847 44.7352 65.4389 42.9613 63.8944 41.6934C61.6838 39.8221 59.928 37.4723 58.7601 34.8219C57.592 32.171 57.0426 29.289 57.1537 26.3943C57.3844 21.4971 59.4582 16.8681 62.959 13.4359C66.4597 10.0038 71.1284 8.02202 76.0289 7.88796C79.9901 7.82698 83.8732 8.99274 87.1459 11.2255C90.4193 13.4587 92.9216 16.65 94.3096 20.3617C95.6976 24.0734 95.9032 28.1235 94.8982 31.9567C93.8934 35.7893 91.7276 39.2173 88.6977 41.7705C87.1894 43.0241 86.1755 44.7728 85.837 46.7048L85.7343 47.291H86.3295H88.6567C89.1773 47.291 89.6765 47.4978 90.0446 47.8659C90.4126 48.234 90.6194 48.7332 90.6194 49.2537V56.6418C90.6194 57.1623 90.4126 57.6615 90.0446 58.0296C89.6765 58.3977 89.1773 58.6045 88.6567 58.6045H86.1941H85.6941V59.1045V64.0299C85.6941 64.5504 85.4873 65.0496 85.1192 65.4177C84.7511 65.7858 84.2519 65.9925 83.7314 65.9925H68.9552C68.4347 65.9925 67.9355 65.7858 67.5674 65.4177C67.1993 65.0496 66.9926 64.5504 66.9926 64.0299V59.1045V58.6045H66.4926H64.0299C63.5093 58.6045 63.0101 58.3977 62.642 58.0296C62.274 57.6615 62.0672 57.1623 62.0672 56.6418V49.2537C62.0672 48.7332 62.274 48.234 62.642 47.8659C63.0101 47.4978 63.5093 47.291 64.0299 47.291H66.3547ZM81.2687 62.0672H81.7687V61.5672V59.1045V58.6045H81.2687H71.4179H70.9179V59.1045V61.5672V62.0672H71.4179H81.2687ZM86.1941 54.6791H86.6941V54.1791V51.7164V51.2164H86.1941H66.4926H65.9926V51.7164V54.1791V54.6791H66.4926H86.1941ZM76.0846 11.8136L76.0839 11.8136C72.1858 11.916 68.4709 13.4897 65.6854 16.2186C62.8999 18.9474 61.2502 22.6292 61.0677 26.5244L61.0677 26.5244L61.0676 26.5288C60.9799 28.8335 61.4185 31.128 62.35 33.238C63.2814 35.348 64.6813 37.2181 66.4433 38.7063L66.4469 38.7093C68.9125 40.7521 70.4942 43.6679 70.8621 46.8485L70.9133 47.291H71.3588H81.3253H81.7747L81.8225 46.8442C82.1603 43.687 83.7209 40.7875 86.17 38.7666L86.17 38.7666L86.1734 38.7638C87.8015 37.396 89.1259 35.7031 90.0617 33.7937C90.9974 31.8842 91.5239 29.8003 91.6073 27.6755C91.6907 25.5507 91.3293 23.4319 90.5461 21.455C89.7632 19.4786 88.576 17.6876 87.0608 16.1966C85.6235 14.7612 83.9098 13.6325 82.0234 12.8791C80.1363 12.1254 78.1159 11.7629 76.0846 11.8136Z" stroke="#4F4F4F"/>
</svg>
