<svg width="66" height="21" viewBox="0 0 66 21" fill="none" xmlns="http://www.w3.org/2000/svg">
<path d="M8.76639 8.24946H6.63246C6.55557 7.38587 5.88271 6.95408 4.65234 6.95408C3.19127 6.95408 2.46074 7.42512 2.46074 8.34759C2.46074 9.13267 2.97981 9.62334 3.99871 9.81961C5.99806 10.2122 7.26688 10.5654 7.80516 10.8795C8.78561 11.4683 9.28546 12.3319 9.28546 13.4899C9.28546 14.5301 8.86252 15.3544 7.99742 15.9236C7.13232 16.4928 5.92115 16.7872 4.34474 16.7872C2.96057 16.7872 1.90322 16.5124 1.13424 15.9825C0.384484 15.4526 0 14.6871 0 13.7058H2.13393C2.21082 14.2553 2.44153 14.6282 2.8068 14.8637C3.17206 15.0993 3.76801 15.1974 4.59467 15.1974C5.36365 15.1974 5.99805 15.0404 6.47866 14.746C6.95928 14.4516 7.20921 14.059 7.20921 13.588C7.20921 13.1169 7.07464 12.7637 6.82472 12.5478C6.55558 12.3319 6.05573 12.1552 5.28675 11.9982C3.42197 11.6449 2.13393 11.2131 1.44184 10.7028C0.749757 10.1925 0.403728 9.4467 0.403728 8.4261C0.403728 6.28676 1.9609 5.20728 5.07528 5.20728C6.2672 5.20728 7.18999 5.4428 7.84362 5.89422C8.49725 6.36526 8.82406 7.01295 8.82406 7.85691C8.78561 7.97468 8.78561 8.09244 8.76639 8.24946Z" fill="white"/>
<path d="M15.3028 5.46237L16.1679 13.8823L17.4367 9.79994H19.6283L20.8971 14.1179L21.7815 5.44275H23.8577L22.5312 16.6105H19.8782L18.5133 11.9393L17.1676 16.6105H14.553L13.1496 5.44275H15.3028V5.46237Z" fill="white"/>
<path d="M28.6063 5.46235H34.2775V16.6301H32.1244V7.58207H28.6063V5.46235V5.46235ZM31.2016 0.339722H34.2775V3.12675H31.2016V0.339722Z" fill="white"/>
<path d="M41.4099 5.4625H43.4477V6.52236C44.4089 5.6784 45.4663 5.26624 46.5813 5.26624C48.0231 5.26624 49.2151 5.79616 50.1378 6.87565C51.0799 7.9355 51.5413 9.30939 51.5413 10.9581C51.5413 12.7245 51.0798 14.1376 50.1763 15.2171C49.2727 16.2966 48.0808 16.8265 46.6005 16.8265C45.9854 16.8265 45.3702 16.7088 44.7934 16.4732C44.2167 16.2377 43.7553 15.9237 43.4285 15.5311V20.3397H41.3907V5.4625H41.4099ZM46.4467 7.09154C45.4855 7.09154 44.7358 7.44483 44.1975 8.13177C43.6592 8.83834 43.3901 9.80007 43.3901 11.0562C43.3901 12.2731 43.6592 13.2348 44.1975 13.9414C44.7358 14.6479 45.4663 14.9816 46.4275 14.9816C47.3887 14.9816 48.1193 14.6479 48.6576 13.961C49.1959 13.274 49.465 12.3319 49.465 11.1347C49.465 8.42618 48.4653 7.09154 46.4467 7.09154Z" fill="white"/>
<path d="M65.0177 11.4878H57.4431L57.424 11.8804C57.424 12.7832 57.7316 13.529 58.3275 14.1179C58.9427 14.687 59.7117 14.9814 60.6537 14.9814C61.4611 14.9814 62.0186 14.7263 62.3455 14.1964H64.5947C64.5178 15.0403 64.1334 15.688 63.422 16.1394C62.7107 16.5909 61.7495 16.8068 60.4999 16.8068C58.8273 16.8068 57.52 16.2964 56.5973 15.2758C55.6745 14.2552 55.2131 12.8421 55.2131 10.9972C55.2131 9.46626 55.6168 8.13162 56.4051 7.01288C57.2509 5.83526 58.539 5.24646 60.25 5.24646C61.8264 5.24646 62.9991 5.7175 63.8257 6.6596C64.6332 7.60169 65.0369 8.97558 65.0369 10.8009C65.0561 10.9579 65.0369 11.1738 65.0177 11.4878ZM62.8645 9.66253C62.8645 8.89708 62.6338 8.26901 62.1532 7.79797C61.6726 7.32692 61.0574 7.09139 60.2692 7.09139C59.5002 7.09139 58.8465 7.32691 58.3467 7.77833C57.8276 8.24938 57.5393 8.85782 57.4624 9.6429H62.8645V9.66253Z" fill="white"/>
</svg>
