<svg width="153" height="153" viewBox="0 0 153 153" fill="none" xmlns="http://www.w3.org/2000/svg">
<mask id="path-1-inside-1" fill="white">
<path d="M137.928 61.5746C134.431 61.5787 131.049 62.8227 128.384 65.0854C125.718 67.3481 123.941 70.4829 123.369 73.9324C123.292 73.9324 123.228 73.888 123.152 73.888H118.226C118.182 73.888 118.145 73.9102 118.103 73.9127C117.564 64.5234 113.862 55.5932 107.6 48.5765C107.617 48.5593 107.639 48.5568 107.654 48.5396L117.505 38.6889C117.722 38.4688 117.894 38.2087 118.012 37.923C119.553 38.888 121.333 39.4032 123.152 39.4104C125.1 39.4104 127.005 38.8327 128.625 37.7503C130.245 36.6679 131.507 35.1294 132.253 33.3294C132.998 31.5294 133.193 29.5487 132.813 27.6379C132.433 25.727 131.495 23.9718 130.117 22.5941C128.74 21.2165 126.984 20.2783 125.074 19.8982C123.163 19.5181 121.182 19.7132 119.382 20.4588C117.582 21.2043 116.044 22.4669 114.961 24.0869C113.879 25.7068 113.301 27.6114 113.301 29.5597C113.305 31.3771 113.817 33.1571 114.779 34.6993C114.493 34.8173 114.233 34.9896 114.013 35.2066L104.162 45.0574C104.145 45.0721 104.142 45.0943 104.125 45.1115C97.111 38.8514 88.1847 35.1494 78.7988 34.6082C78.7988 34.5663 78.8234 34.5294 78.8234 34.485V24.6343C78.8121 24.5513 78.7957 24.469 78.7742 24.388C81.7707 23.7891 84.4375 22.0974 86.2561 19.6417C88.0747 17.186 88.9153 14.1418 88.6143 11.1008C88.3134 8.05989 86.8925 5.23948 84.6278 3.18786C82.3632 1.13625 79.4165 0 76.3607 0C73.305 0 70.3583 1.13625 68.0937 3.18786C65.829 5.23948 64.4081 8.05989 64.1072 11.1008C63.8062 14.1418 64.6468 17.186 66.4654 19.6417C68.284 22.0974 70.9508 23.7891 73.9473 24.388C73.9258 24.469 73.9094 24.5513 73.8981 24.6343V34.485C73.8981 34.5294 73.9202 34.5663 73.9227 34.6082C64.5334 35.1472 55.6032 38.8493 48.5866 45.1115C48.5693 45.0943 48.5669 45.0721 48.5496 45.0574L26.3855 22.8932C26.1654 22.6761 25.9053 22.5038 25.6196 22.3859C26.5846 20.8447 27.0998 19.0646 27.107 17.2462C27.107 15.2979 26.5293 13.3934 25.4469 11.7735C24.3645 10.1535 22.826 8.89092 21.026 8.14534C19.226 7.39976 17.2453 7.20468 15.3345 7.58477C13.4236 7.96487 11.6684 8.90306 10.2907 10.2807C8.9131 11.6584 7.9749 13.4136 7.59481 15.3245C7.21472 17.2353 7.40979 19.216 8.15537 21.016C8.90095 22.8159 10.1635 24.3544 11.7835 25.4368C13.4034 26.5193 15.308 27.097 17.2563 27.097C19.0737 27.0927 20.8537 26.581 22.3959 25.6194C22.5139 25.9051 22.6862 26.1652 22.9032 26.3853L45.0674 48.5494C45.0822 48.5667 45.1043 48.5692 45.1216 48.5864C38.8614 55.6005 35.1595 64.5268 34.6182 73.9127C34.5764 73.9127 34.5394 73.888 34.4951 73.888H29.5697C29.4934 73.888 29.4293 73.925 29.353 73.9324C28.746 70.2735 26.7852 66.9768 23.86 64.6967C20.9348 62.4166 17.2592 61.32 13.5628 61.6245C9.86653 61.929 6.4199 63.6125 3.90733 66.3406C1.39476 69.0687 0 72.6419 0 76.3507C0 80.0596 1.39476 83.6328 3.90733 86.3609C6.4199 89.089 9.86653 90.7724 13.5628 91.077C17.2592 91.3815 20.9348 90.2848 23.86 88.0048C26.7852 85.7247 28.746 82.4279 29.353 78.7691C29.4293 78.7691 29.4934 78.8134 29.5697 78.8134H34.4951C34.5394 78.8134 34.5764 78.7912 34.6182 78.7888C35.1515 88.1081 38.8022 96.9777 44.9837 103.972C45.103 104.149 45.2464 104.308 45.4097 104.445C52.756 112.558 62.9961 117.46 73.9227 118.093C73.9227 118.135 73.8981 118.172 73.8981 118.216V128.067C73.9094 128.15 73.9258 128.232 73.9473 128.313C70.9508 128.912 68.284 130.604 66.4654 133.06C64.6468 135.515 63.8062 138.56 64.1072 141.601C64.4081 144.642 65.829 147.462 68.0937 149.514C70.3583 151.565 73.305 152.701 76.3607 152.701C79.4165 152.701 82.3632 151.565 84.6278 149.514C86.8925 147.462 88.3134 144.642 88.6143 141.601C88.9153 138.56 88.0747 135.515 86.2561 133.06C84.4375 130.604 81.7707 128.912 78.7742 128.313C78.7957 128.232 78.8121 128.15 78.8234 128.067V118.216C78.8234 118.172 78.8013 118.135 78.7988 118.093C88.1881 117.554 97.1183 113.852 104.135 107.59C104.152 107.607 104.155 107.629 104.172 107.644L114.023 117.495C114.243 117.712 114.503 117.884 114.789 118.002C113.823 119.543 113.308 121.323 113.301 123.142C113.301 125.09 113.879 126.995 114.961 128.615C116.044 130.234 117.582 131.497 119.382 132.243C121.182 132.988 123.163 133.183 125.074 132.803C126.984 132.423 128.74 131.485 130.117 130.107C131.495 128.73 132.433 126.974 132.813 125.064C133.193 123.153 132.998 121.172 132.253 119.372C131.507 117.572 130.245 116.034 128.625 114.951C127.005 113.869 125.1 113.291 123.152 113.291C121.334 113.295 119.554 113.807 118.012 114.769C117.894 114.483 117.722 114.223 117.505 114.003L107.654 104.152C107.696 104.098 107.711 104.029 107.748 103.97C113.925 96.9745 117.572 88.1061 118.103 78.7888C118.145 78.7888 118.182 78.8134 118.226 78.8134H123.152C123.228 78.8134 123.292 78.7765 123.369 78.7691C123.83 81.5509 125.078 84.1425 126.965 86.238C128.852 88.3335 131.299 89.8454 134.017 90.5951C136.735 91.3447 139.611 91.3009 142.306 90.4689C145 89.6368 147.4 88.0511 149.222 85.8991C151.044 83.7472 152.213 81.1187 152.589 78.3242C152.966 75.5296 152.535 72.6857 151.347 70.1281C150.16 67.5705 148.265 65.4061 145.887 63.8905C143.51 62.3749 140.748 61.5713 137.928 61.5746ZM123.152 24.6343C124.126 24.6343 125.078 24.9232 125.888 25.4644C126.698 26.0056 127.329 26.7748 127.702 27.6748C128.075 28.5748 128.173 29.5651 127.983 30.5206C127.792 31.476 127.323 32.3536 126.635 33.0424C125.946 33.7313 125.068 34.2004 124.113 34.3904C123.157 34.5805 122.167 34.4829 121.267 34.1101C120.367 33.7373 119.598 33.106 119.056 32.2961C118.515 31.4861 118.226 30.5338 118.226 29.5597C118.226 28.2534 118.745 27.0006 119.669 26.0769C120.593 25.1532 121.846 24.6343 123.152 24.6343ZM17.2563 22.1716C16.2821 22.1716 15.3299 21.8827 14.5199 21.3415C13.7099 20.8003 13.0786 20.0311 12.7058 19.1311C12.333 18.2311 12.2355 17.2408 12.4255 16.2853C12.6156 15.3299 13.0847 14.4523 13.7735 13.7635C14.4623 13.0747 15.34 12.6056 16.2954 12.4155C17.2508 12.2255 18.2411 12.323 19.1411 12.6958C20.0411 13.0686 20.8104 13.6999 21.3516 14.5099C21.8928 15.3198 22.1817 16.2721 22.1817 17.2462C22.1817 18.5525 21.6627 19.8053 20.739 20.729C19.8154 21.6527 18.5626 22.1716 17.2563 22.1716ZM14.7936 86.2015C12.8453 86.2015 10.9408 85.6237 9.32081 84.5413C7.70086 83.4589 6.43827 81.9204 5.69269 80.1204C4.94711 78.3205 4.75203 76.3398 5.13212 74.4289C5.51222 72.5181 6.45041 70.7628 7.82806 69.3852C9.20571 68.0075 10.9609 67.0693 12.8718 66.6892C14.7827 66.3092 16.7633 66.5042 18.5633 67.2498C20.3633 67.9954 21.9018 69.258 22.9842 70.8779C24.0666 72.4979 24.6443 74.4024 24.6443 76.3507C24.6443 78.9633 23.6065 81.4689 21.7591 83.3163C19.9117 85.1636 17.4062 86.2015 14.7936 86.2015ZM123.152 118.216C124.126 118.216 125.078 118.505 125.888 119.046C126.698 119.588 127.329 120.357 127.702 121.257C128.075 122.157 128.173 123.147 127.983 124.103C127.792 125.058 127.323 125.936 126.635 126.625C125.946 127.313 125.068 127.782 124.113 127.973C123.157 128.163 122.167 128.065 121.267 127.692C120.367 127.319 119.598 126.688 119.056 125.878C118.515 125.068 118.226 124.116 118.226 123.142C118.226 121.835 118.745 120.583 119.669 119.659C120.593 118.735 121.846 118.216 123.152 118.216ZM68.9727 12.3209C68.9727 10.8596 69.406 9.43124 70.2178 8.21628C71.0296 7.00132 72.1835 6.05438 73.5335 5.49519C74.8835 4.93601 76.3689 4.7897 77.8021 5.07477C79.2352 5.35984 80.5517 6.06348 81.5849 7.09672C82.6181 8.12996 83.3218 9.44639 83.6069 10.8795C83.8919 12.3127 83.7456 13.7982 83.1864 15.1482C82.6272 16.4981 81.6803 17.652 80.4653 18.4638C79.2504 19.2756 77.822 19.7089 76.3607 19.7089C74.4013 19.7089 72.5221 18.9305 71.1366 17.545C69.7511 16.1595 68.9727 14.2803 68.9727 12.3209ZM83.7488 140.381C83.7488 141.842 83.3155 143.27 82.5037 144.485C81.6919 145.7 80.538 146.647 79.188 147.206C77.8381 147.765 76.3526 147.912 74.9194 147.627C73.4863 147.342 72.1698 146.638 71.1366 145.605C70.1034 144.571 69.3997 143.255 69.1147 141.822C68.8296 140.389 68.9759 138.903 69.5351 137.553C70.0943 136.203 71.0412 135.049 72.2562 134.238C73.4711 133.426 74.8995 132.993 76.3607 132.993C78.3202 132.993 80.1994 133.771 81.5849 135.156C82.9704 136.542 83.7488 138.421 83.7488 140.381ZM76.3607 113.291C71.3533 113.29 66.3988 112.266 61.8005 110.284C57.2022 108.301 53.057 105.401 49.6184 101.761C50.2593 96.3734 52.4995 91.3016 56.0502 87.1995C59.6009 83.0975 64.2992 80.1534 69.5391 78.7469C70.028 78.6313 70.4698 78.369 70.8054 77.9951C71.1409 77.6212 71.354 77.1536 71.4162 76.6551C71.4784 76.1566 71.3866 75.651 71.1532 75.2062C70.9198 74.7613 70.556 74.3985 70.1105 74.1663C68.2149 73.2624 66.6284 71.819 65.5498 70.0171C64.4712 68.2152 63.9485 66.135 64.0473 64.0373C64.0473 60.7716 65.3446 57.6396 67.6538 55.3304C69.9631 53.0212 73.095 51.7239 76.3607 51.7239C79.6265 51.7239 82.7585 53.0212 85.0677 55.3304C87.3769 57.6396 88.6742 60.7716 88.6742 64.0373C88.773 66.135 88.2503 68.2152 87.1717 70.0171C86.0931 71.819 84.5066 73.2624 82.6111 74.1663C82.1655 74.3985 81.8017 74.7613 81.5683 75.2062C81.3349 75.651 81.2431 76.1566 81.3053 76.6551C81.3675 77.1536 81.5806 77.6212 81.9161 77.9951C82.2517 78.369 82.6935 78.6313 83.1824 78.7469C88.4223 80.1534 93.1206 83.0975 96.6713 87.1995C100.222 91.3016 102.462 96.3734 103.103 101.761C99.6646 105.401 95.5193 108.301 90.921 110.284C86.3228 112.266 81.3682 113.29 76.3607 113.291ZM107.093 96.8132C105.876 92.143 103.627 87.8058 100.509 84.1217C97.3923 80.4376 93.4873 77.5008 89.083 75.5282C90.5802 74.0225 91.7533 72.2262 92.53 70.25C93.3068 68.2738 93.6708 66.1595 93.5996 64.0373C93.5996 59.4653 91.7833 55.0805 88.5504 51.8476C85.3175 48.6147 80.9328 46.7985 76.3607 46.7985C71.7887 46.7985 67.404 48.6147 64.1711 51.8476C60.9382 55.0805 59.1219 59.4653 59.1219 64.0373C59.0507 66.1595 59.4147 68.2738 60.1915 70.25C60.9682 72.2262 62.1413 74.0225 63.6385 75.5282C59.2342 77.5008 55.3292 80.4376 52.212 84.1217C49.0949 87.8058 46.8451 92.143 45.6289 96.8132C41.9185 91.2502 39.7877 84.7844 39.4638 78.1054C39.1399 71.4264 40.635 64.7847 43.7896 58.8888C46.9442 52.9928 51.64 48.0637 57.3763 44.6272C63.1125 41.1907 69.6739 39.3756 76.3607 39.3756C83.0476 39.3756 89.609 41.1907 95.3452 44.6272C101.081 48.0637 105.777 52.9928 108.932 58.8888C112.087 64.7847 113.582 71.4264 113.258 78.1054C112.934 84.7844 110.803 91.2502 107.093 96.8132ZM137.928 86.2015C135.98 86.2015 134.075 85.6237 132.455 84.5413C130.835 83.4589 129.573 81.9204 128.827 80.1204C128.081 78.3205 127.886 76.3398 128.266 74.4289C128.647 72.5181 129.585 70.7628 130.962 69.3852C132.34 68.0075 134.095 67.0693 136.006 66.6892C137.917 66.3092 139.898 66.5042 141.698 67.2498C143.498 67.9954 145.036 69.258 146.119 70.8779C147.201 72.4979 147.779 74.4024 147.779 76.3507C147.779 78.9633 146.741 81.4689 144.893 83.3163C143.046 85.1636 140.54 86.2015 137.928 86.2015Z"/>
</mask>
<path d="M137.928 61.5746C134.431 61.5787 131.049 62.8227 128.384 65.0854C125.718 67.3481 123.941 70.4829 123.369 73.9324C123.292 73.9324 123.228 73.888 123.152 73.888H118.226C118.182 73.888 118.145 73.9102 118.103 73.9127C117.564 64.5234 113.862 55.5932 107.6 48.5765C107.617 48.5593 107.639 48.5568 107.654 48.5396L117.505 38.6889C117.722 38.4688 117.894 38.2087 118.012 37.923C119.553 38.888 121.333 39.4032 123.152 39.4104C125.1 39.4104 127.005 38.8327 128.625 37.7503C130.245 36.6679 131.507 35.1294 132.253 33.3294C132.998 31.5294 133.193 29.5487 132.813 27.6379C132.433 25.727 131.495 23.9718 130.117 22.5941C128.74 21.2165 126.984 20.2783 125.074 19.8982C123.163 19.5181 121.182 19.7132 119.382 20.4588C117.582 21.2043 116.044 22.4669 114.961 24.0869C113.879 25.7068 113.301 27.6114 113.301 29.5597C113.305 31.3771 113.817 33.1571 114.779 34.6993C114.493 34.8173 114.233 34.9896 114.013 35.2066L104.162 45.0574C104.145 45.0721 104.142 45.0943 104.125 45.1115C97.111 38.8514 88.1847 35.1494 78.7988 34.6082C78.7988 34.5663 78.8234 34.5294 78.8234 34.485V24.6343C78.8121 24.5513 78.7957 24.469 78.7742 24.388C81.7707 23.7891 84.4375 22.0974 86.2561 19.6417C88.0747 17.186 88.9153 14.1418 88.6143 11.1008C88.3134 8.05989 86.8925 5.23948 84.6278 3.18786C82.3632 1.13625 79.4165 0 76.3607 0C73.305 0 70.3583 1.13625 68.0937 3.18786C65.829 5.23948 64.4081 8.05989 64.1072 11.1008C63.8062 14.1418 64.6468 17.186 66.4654 19.6417C68.284 22.0974 70.9508 23.7891 73.9473 24.388C73.9258 24.469 73.9094 24.5513 73.8981 24.6343V34.485C73.8981 34.5294 73.9202 34.5663 73.9227 34.6082C64.5334 35.1472 55.6032 38.8493 48.5866 45.1115C48.5693 45.0943 48.5669 45.0721 48.5496 45.0574L26.3855 22.8932C26.1654 22.6761 25.9053 22.5038 25.6196 22.3859C26.5846 20.8447 27.0998 19.0646 27.107 17.2462C27.107 15.2979 26.5293 13.3934 25.4469 11.7735C24.3645 10.1535 22.826 8.89092 21.026 8.14534C19.226 7.39976 17.2453 7.20468 15.3345 7.58477C13.4236 7.96487 11.6684 8.90306 10.2907 10.2807C8.9131 11.6584 7.9749 13.4136 7.59481 15.3245C7.21472 17.2353 7.40979 19.216 8.15537 21.016C8.90095 22.8159 10.1635 24.3544 11.7835 25.4368C13.4034 26.5193 15.308 27.097 17.2563 27.097C19.0737 27.0927 20.8537 26.581 22.3959 25.6194C22.5139 25.9051 22.6862 26.1652 22.9032 26.3853L45.0674 48.5494C45.0822 48.5667 45.1043 48.5692 45.1216 48.5864C38.8614 55.6005 35.1595 64.5268 34.6182 73.9127C34.5764 73.9127 34.5394 73.888 34.4951 73.888H29.5697C29.4934 73.888 29.4293 73.925 29.353 73.9324C28.746 70.2735 26.7852 66.9768 23.86 64.6967C20.9348 62.4166 17.2592 61.32 13.5628 61.6245C9.86653 61.929 6.4199 63.6125 3.90733 66.3406C1.39476 69.0687 0 72.6419 0 76.3507C0 80.0596 1.39476 83.6328 3.90733 86.3609C6.4199 89.089 9.86653 90.7724 13.5628 91.077C17.2592 91.3815 20.9348 90.2848 23.86 88.0048C26.7852 85.7247 28.746 82.4279 29.353 78.7691C29.4293 78.7691 29.4934 78.8134 29.5697 78.8134H34.4951C34.5394 78.8134 34.5764 78.7912 34.6182 78.7888C35.1515 88.1081 38.8022 96.9777 44.9837 103.972C45.103 104.149 45.2464 104.308 45.4097 104.445C52.756 112.558 62.9961 117.46 73.9227 118.093C73.9227 118.135 73.8981 118.172 73.8981 118.216V128.067C73.9094 128.15 73.9258 128.232 73.9473 128.313C70.9508 128.912 68.284 130.604 66.4654 133.06C64.6468 135.515 63.8062 138.56 64.1072 141.601C64.4081 144.642 65.829 147.462 68.0937 149.514C70.3583 151.565 73.305 152.701 76.3607 152.701C79.4165 152.701 82.3632 151.565 84.6278 149.514C86.8925 147.462 88.3134 144.642 88.6143 141.601C88.9153 138.56 88.0747 135.515 86.2561 133.06C84.4375 130.604 81.7707 128.912 78.7742 128.313C78.7957 128.232 78.8121 128.15 78.8234 128.067V118.216C78.8234 118.172 78.8013 118.135 78.7988 118.093C88.1881 117.554 97.1183 113.852 104.135 107.59C104.152 107.607 104.155 107.629 104.172 107.644L114.023 117.495C114.243 117.712 114.503 117.884 114.789 118.002C113.823 119.543 113.308 121.323 113.301 123.142C113.301 125.09 113.879 126.995 114.961 128.615C116.044 130.234 117.582 131.497 119.382 132.243C121.182 132.988 123.163 133.183 125.074 132.803C126.984 132.423 128.74 131.485 130.117 130.107C131.495 128.73 132.433 126.974 132.813 125.064C133.193 123.153 132.998 121.172 132.253 119.372C131.507 117.572 130.245 116.034 128.625 114.951C127.005 113.869 125.1 113.291 123.152 113.291C121.334 113.295 119.554 113.807 118.012 114.769C117.894 114.483 117.722 114.223 117.505 114.003L107.654 104.152C107.696 104.098 107.711 104.029 107.748 103.97C113.925 96.9745 117.572 88.1061 118.103 78.7888C118.145 78.7888 118.182 78.8134 118.226 78.8134H123.152C123.228 78.8134 123.292 78.7765 123.369 78.7691C123.83 81.5509 125.078 84.1425 126.965 86.238C128.852 88.3335 131.299 89.8454 134.017 90.5951C136.735 91.3447 139.611 91.3009 142.306 90.4689C145 89.6368 147.4 88.0511 149.222 85.8991C151.044 83.7472 152.213 81.1187 152.589 78.3242C152.966 75.5296 152.535 72.6857 151.347 70.1281C150.16 67.5705 148.265 65.4061 145.887 63.8905C143.51 62.3749 140.748 61.5713 137.928 61.5746ZM123.152 24.6343C124.126 24.6343 125.078 24.9232 125.888 25.4644C126.698 26.0056 127.329 26.7748 127.702 27.6748C128.075 28.5748 128.173 29.5651 127.983 30.5206C127.792 31.476 127.323 32.3536 126.635 33.0424C125.946 33.7313 125.068 34.2004 124.113 34.3904C123.157 34.5805 122.167 34.4829 121.267 34.1101C120.367 33.7373 119.598 33.106 119.056 32.2961C118.515 31.4861 118.226 30.5338 118.226 29.5597C118.226 28.2534 118.745 27.0006 119.669 26.0769C120.593 25.1532 121.846 24.6343 123.152 24.6343ZM17.2563 22.1716C16.2821 22.1716 15.3299 21.8827 14.5199 21.3415C13.7099 20.8003 13.0786 20.0311 12.7058 19.1311C12.333 18.2311 12.2355 17.2408 12.4255 16.2853C12.6156 15.3299 13.0847 14.4523 13.7735 13.7635C14.4623 13.0747 15.34 12.6056 16.2954 12.4155C17.2508 12.2255 18.2411 12.323 19.1411 12.6958C20.0411 13.0686 20.8104 13.6999 21.3516 14.5099C21.8928 15.3198 22.1817 16.2721 22.1817 17.2462C22.1817 18.5525 21.6627 19.8053 20.739 20.729C19.8154 21.6527 18.5626 22.1716 17.2563 22.1716ZM14.7936 86.2015C12.8453 86.2015 10.9408 85.6237 9.32081 84.5413C7.70086 83.4589 6.43827 81.9204 5.69269 80.1204C4.94711 78.3205 4.75203 76.3398 5.13212 74.4289C5.51222 72.5181 6.45041 70.7628 7.82806 69.3852C9.20571 68.0075 10.9609 67.0693 12.8718 66.6892C14.7827 66.3092 16.7633 66.5042 18.5633 67.2498C20.3633 67.9954 21.9018 69.258 22.9842 70.8779C24.0666 72.4979 24.6443 74.4024 24.6443 76.3507C24.6443 78.9633 23.6065 81.4689 21.7591 83.3163C19.9117 85.1636 17.4062 86.2015 14.7936 86.2015ZM123.152 118.216C124.126 118.216 125.078 118.505 125.888 119.046C126.698 119.588 127.329 120.357 127.702 121.257C128.075 122.157 128.173 123.147 127.983 124.103C127.792 125.058 127.323 125.936 126.635 126.625C125.946 127.313 125.068 127.782 124.113 127.973C123.157 128.163 122.167 128.065 121.267 127.692C120.367 127.319 119.598 126.688 119.056 125.878C118.515 125.068 118.226 124.116 118.226 123.142C118.226 121.835 118.745 120.583 119.669 119.659C120.593 118.735 121.846 118.216 123.152 118.216ZM68.9727 12.3209C68.9727 10.8596 69.406 9.43124 70.2178 8.21628C71.0296 7.00132 72.1835 6.05438 73.5335 5.49519C74.8835 4.93601 76.3689 4.7897 77.8021 5.07477C79.2352 5.35984 80.5517 6.06348 81.5849 7.09672C82.6181 8.12996 83.3218 9.44639 83.6069 10.8795C83.8919 12.3127 83.7456 13.7982 83.1864 15.1482C82.6272 16.4981 81.6803 17.652 80.4653 18.4638C79.2504 19.2756 77.822 19.7089 76.3607 19.7089C74.4013 19.7089 72.5221 18.9305 71.1366 17.545C69.7511 16.1595 68.9727 14.2803 68.9727 12.3209ZM83.7488 140.381C83.7488 141.842 83.3155 143.27 82.5037 144.485C81.6919 145.7 80.538 146.647 79.188 147.206C77.8381 147.765 76.3526 147.912 74.9194 147.627C73.4863 147.342 72.1698 146.638 71.1366 145.605C70.1034 144.571 69.3997 143.255 69.1147 141.822C68.8296 140.389 68.9759 138.903 69.5351 137.553C70.0943 136.203 71.0412 135.049 72.2562 134.238C73.4711 133.426 74.8995 132.993 76.3607 132.993C78.3202 132.993 80.1994 133.771 81.5849 135.156C82.9704 136.542 83.7488 138.421 83.7488 140.381ZM76.3607 113.291C71.3533 113.29 66.3988 112.266 61.8005 110.284C57.2022 108.301 53.057 105.401 49.6184 101.761C50.2593 96.3734 52.4995 91.3016 56.0502 87.1995C59.6009 83.0975 64.2992 80.1534 69.5391 78.7469C70.028 78.6313 70.4698 78.369 70.8054 77.9951C71.1409 77.6212 71.354 77.1536 71.4162 76.6551C71.4784 76.1566 71.3866 75.651 71.1532 75.2062C70.9198 74.7613 70.556 74.3985 70.1105 74.1663C68.2149 73.2624 66.6284 71.819 65.5498 70.0171C64.4712 68.2152 63.9485 66.135 64.0473 64.0373C64.0473 60.7716 65.3446 57.6396 67.6538 55.3304C69.9631 53.0212 73.095 51.7239 76.3607 51.7239C79.6265 51.7239 82.7585 53.0212 85.0677 55.3304C87.3769 57.6396 88.6742 60.7716 88.6742 64.0373C88.773 66.135 88.2503 68.2152 87.1717 70.0171C86.0931 71.819 84.5066 73.2624 82.6111 74.1663C82.1655 74.3985 81.8017 74.7613 81.5683 75.2062C81.3349 75.651 81.2431 76.1566 81.3053 76.6551C81.3675 77.1536 81.5806 77.6212 81.9161 77.9951C82.2517 78.369 82.6935 78.6313 83.1824 78.7469C88.4223 80.1534 93.1206 83.0975 96.6713 87.1995C100.222 91.3016 102.462 96.3734 103.103 101.761C99.6646 105.401 95.5193 108.301 90.921 110.284C86.3228 112.266 81.3682 113.29 76.3607 113.291ZM107.093 96.8132C105.876 92.143 103.627 87.8058 100.509 84.1217C97.3923 80.4376 93.4873 77.5008 89.083 75.5282C90.5802 74.0225 91.7533 72.2262 92.53 70.25C93.3068 68.2738 93.6708 66.1595 93.5996 64.0373C93.5996 59.4653 91.7833 55.0805 88.5504 51.8476C85.3175 48.6147 80.9328 46.7985 76.3607 46.7985C71.7887 46.7985 67.404 48.6147 64.1711 51.8476C60.9382 55.0805 59.1219 59.4653 59.1219 64.0373C59.0507 66.1595 59.4147 68.2738 60.1915 70.25C60.9682 72.2262 62.1413 74.0225 63.6385 75.5282C59.2342 77.5008 55.3292 80.4376 52.212 84.1217C49.0949 87.8058 46.8451 92.143 45.6289 96.8132C41.9185 91.2502 39.7877 84.7844 39.4638 78.1054C39.1399 71.4264 40.635 64.7847 43.7896 58.8888C46.9442 52.9928 51.64 48.0637 57.3763 44.6272C63.1125 41.1907 69.6739 39.3756 76.3607 39.3756C83.0476 39.3756 89.609 41.1907 95.3452 44.6272C101.081 48.0637 105.777 52.9928 108.932 58.8888C112.087 64.7847 113.582 71.4264 113.258 78.1054C112.934 84.7844 110.803 91.2502 107.093 96.8132ZM137.928 86.2015C135.98 86.2015 134.075 85.6237 132.455 84.5413C130.835 83.4589 129.573 81.9204 128.827 80.1204C128.081 78.3205 127.886 76.3398 128.266 74.4289C128.647 72.5181 129.585 70.7628 130.962 69.3852C132.34 68.0075 134.095 67.0693 136.006 66.6892C137.917 66.3092 139.898 66.5042 141.698 67.2498C143.498 67.9954 145.036 69.258 146.119 70.8779C147.201 72.4979 147.779 74.4024 147.779 76.3507C147.779 78.9633 146.741 81.4689 144.893 83.3163C143.046 85.1636 140.54 86.2015 137.928 86.2015Z" stroke="#4F4F4F" stroke-width="2" mask="url(#path-1-inside-1)"/>
<path d="M19.6678 129.978L20.1695 130.292L20.3953 129.745C20.4884 129.52 20.6242 129.315 20.7953 129.141C20.7957 129.141 20.7961 129.14 20.7965 129.14L30.4984 119.438H30.5031L30.6485 119.298C31.0186 118.94 31.5144 118.742 32.029 118.747C32.5436 118.751 33.0359 118.958 33.3998 119.321C33.7637 119.685 33.9701 120.178 33.9746 120.692C33.979 121.206 33.7823 121.7 33.4265 122.07L23.5815 131.915C23.5811 131.915 23.5806 131.916 23.5802 131.916C23.4065 132.087 23.2013 132.223 22.9759 132.316L22.4299 132.542L22.7424 133.043C23.6546 134.506 24.1401 136.194 24.1443 137.918C24.1442 139.768 23.5958 141.575 22.5684 143.113C21.5409 144.651 20.0806 145.849 18.3719 146.557C16.6633 147.265 14.7832 147.45 12.9693 147.089C11.1555 146.728 9.48931 145.838 8.18158 144.53C6.87386 143.222 5.98329 141.556 5.62249 139.742C5.26169 137.928 5.44686 136.048 6.1546 134.339C6.86233 132.631 8.06084 131.17 9.59856 130.143C11.136 129.116 12.9435 128.567 14.7925 128.567C16.5174 128.574 18.2059 129.063 19.6678 129.978ZM11.7794 142.429C12.6716 143.025 13.7205 143.343 14.7936 143.343C16.2325 143.343 17.6124 142.772 18.6299 141.754C19.6473 140.737 20.2189 139.357 20.2189 137.918C20.2189 136.845 19.9007 135.796 19.3046 134.904C18.7084 134.011 17.8611 133.316 16.8698 132.905C15.8784 132.495 14.7875 132.387 13.7351 132.597C12.6827 132.806 11.716 133.323 10.9572 134.082C10.1985 134.84 9.68177 135.807 9.47243 136.859C9.26309 137.912 9.37053 139.003 9.78117 139.994C10.1918 140.985 10.8872 141.833 11.7794 142.429Z" stroke="#4F4F4F"/>
<path d="M35.564 114.372L35.5641 114.372L35.5702 114.366L40.4923 109.444C40.8622 109.088 41.3567 108.892 41.87 108.896C42.3846 108.9 42.8768 109.107 43.2407 109.471C43.6046 109.835 43.811 110.327 43.8155 110.842C43.82 111.355 43.6232 111.849 43.2675 112.219L38.3454 117.141L38.3453 117.141L38.3393 117.148C38.1582 117.335 37.9416 117.484 37.7022 117.587C37.4627 117.69 37.2052 117.744 36.9446 117.747C36.684 117.749 36.4255 117.699 36.1843 117.601C35.9431 117.502 35.724 117.356 35.5397 117.172L35.1893 117.522L35.5397 117.172C35.3554 116.988 35.2097 116.768 35.111 116.527C35.0123 116.286 34.9627 116.028 34.9649 115.767C34.9672 115.506 35.0213 115.249 35.1242 115.009C35.2271 114.77 35.3766 114.553 35.564 114.372Z" stroke="#4F4F4F"/>
<path d="M136.853 18.6338L136.853 18.6338L141.778 13.7084L141.784 13.7022L141.784 13.7023C141.972 13.5213 142.121 13.3047 142.224 13.0652C142.327 12.8258 142.381 12.5682 142.384 12.3076C142.386 12.047 142.336 11.7886 142.237 11.5474C142.139 11.3062 141.993 11.087 141.809 10.9027L142.159 10.5523L141.809 10.9027C141.624 10.7185 141.405 10.5727 141.164 10.474C140.923 10.3753 140.664 10.3257 140.404 10.328C140.143 10.3302 139.886 10.3844 139.646 10.4872C139.407 10.5901 139.19 10.7396 139.009 10.9271L139.003 10.9333L139.003 10.9333L134.078 15.8586C134.078 15.8586 134.078 15.8586 134.078 15.8586C133.803 16.1331 133.616 16.4828 133.541 16.8634C133.465 17.2441 133.504 17.6387 133.652 17.9972C133.801 18.3558 134.052 18.6623 134.375 18.878C134.698 19.0936 135.077 19.2088 135.465 19.2089L136.853 18.6338ZM136.853 18.6338C136.485 19.0019 135.986 19.2087 135.465 19.2089L136.853 18.6338Z" stroke="#4F4F4F"/>
</svg>
