<svg width="151" height="153" viewBox="0 0 151 153" fill="none" xmlns="http://www.w3.org/2000/svg">
<mask id="path-1-inside-1" fill="white">
<path d="M147.761 0H56.6418C55.9886 0 55.3622 0.259461 54.9004 0.721304C54.4386 1.18315 54.1791 1.80954 54.1791 2.46269V39.403H49.2537V34.4776C49.2537 33.8245 48.9943 33.1981 48.5324 32.7362C48.0706 32.2744 47.4442 32.0149 46.791 32.0149C46.1379 32.0149 45.5115 32.2744 45.0497 32.7362C44.5878 33.1981 44.3284 33.8245 44.3284 34.4776V39.403H36.9403C34.9809 39.403 33.1017 40.1814 31.7162 41.5669C30.3306 42.9524 29.5522 44.8316 29.5522 46.791V49.2537H24.6269C23.9737 49.2537 23.3473 49.5132 22.8855 49.975C22.4236 50.4369 22.1642 51.0633 22.1642 51.7164V76.3433C22.1642 76.9964 22.4236 77.6228 22.8855 78.0847C23.3473 78.5465 23.9737 78.806 24.6269 78.806H29.5522V91.1194C29.5522 91.7725 29.8117 92.3989 30.2735 92.8608C30.7354 93.3226 31.3618 93.5821 32.0149 93.5821H39.403V98.5075H7.38806C5.42862 98.5075 3.54944 99.2859 2.16391 100.671C0.778383 102.057 0 103.936 0 105.896V125.597C0 126.25 0.259461 126.877 0.721304 127.338C1.18315 127.8 1.80954 128.06 2.46269 128.06H4.92537V150.224C4.92537 150.877 5.18483 151.503 5.64668 151.965C6.10852 152.427 6.73491 152.687 7.38806 152.687H17.2388C17.892 152.687 18.5183 152.427 18.9802 151.965C19.442 151.503 19.7015 150.877 19.7015 150.224V128.06H24.6269V150.224C24.6269 150.877 24.8863 151.503 25.3482 151.965C25.81 152.427 26.4364 152.687 27.0896 152.687H66.4925C67.1457 152.687 67.7721 152.427 68.2339 151.965C68.6958 151.503 68.9552 150.877 68.9552 150.224V128.06H73.8806V150.224C73.8806 150.877 74.1401 151.503 74.6019 151.965C75.0637 152.427 75.6901 152.687 76.3433 152.687H86.194C86.8472 152.687 87.4736 152.427 87.9354 151.965C88.3973 151.503 88.6567 150.877 88.6567 150.224V128.06H91.1194C91.7725 128.06 92.3989 127.8 92.8608 127.338C93.3226 126.877 93.5821 126.25 93.5821 125.597V105.896C93.5821 103.936 92.8037 102.057 91.4182 100.671C90.0326 99.2859 88.1535 98.5075 86.194 98.5075H54.1791V93.5821H61.5672C62.2203 93.5821 62.8467 93.3226 63.3085 92.8608C63.7704 92.3989 64.0298 91.7725 64.0298 91.1194V78.806H68.9552C69.6084 78.806 70.2348 78.5465 70.6966 78.0847C71.1585 77.6228 71.4179 76.9964 71.4179 76.3433V61.5672H147.761C148.414 61.5672 149.041 61.3077 149.503 60.8459C149.964 60.384 150.224 59.7576 150.224 59.1045V2.46269C150.224 1.80954 149.964 1.18315 149.503 0.721304C149.041 0.259461 148.414 0 147.761 0ZM14.7761 147.761H9.85075V128.06H14.7761V147.761ZM24.6269 123.134H4.92537V105.896C4.92537 105.242 5.18483 104.616 5.64668 104.154C6.10852 103.692 6.73491 103.433 7.38806 103.433H24.6269V123.134ZM83.7313 147.761H78.806V128.06H83.7313V147.761ZM68.9552 103.433H86.194C86.8472 103.433 87.4736 103.692 87.9354 104.154C88.3973 104.616 88.6567 105.242 88.6567 105.896V123.134H68.9552V103.433ZM59.1045 4.92537H145.299V12.3134H59.1045V4.92537ZM34.4776 46.791C34.4776 46.1379 34.7371 45.5115 35.1989 45.0497C35.6608 44.5878 36.2872 44.3284 36.9403 44.3284H56.6418C57.2949 44.3284 57.9213 44.5878 58.3832 45.0497C58.845 45.5115 59.1045 46.1379 59.1045 46.791V49.2537H34.4776V46.791ZM64.0298 103.433V147.761H29.5522V103.433H64.0298ZM44.3284 98.5075V93.5821H49.2537V98.5075H44.3284ZM59.1045 88.6567H34.4776V78.806H59.1045V88.6567ZM66.4925 73.8806H27.0896V54.1791H66.4925V73.8806ZM145.299 56.6418H71.4179V51.7164C71.4179 51.0633 71.1585 50.4369 70.6966 49.975C70.2348 49.5132 69.6084 49.2537 68.9552 49.2537H64.0298V46.791C64.0235 45.2685 63.547 43.785 62.6653 42.5437C61.7836 41.3023 60.54 40.3636 59.1045 39.8561V17.2388H145.299V56.6418Z"/>
</mask>
<path d="M147.761 0H56.6418C55.9886 0 55.3622 0.259461 54.9004 0.721304C54.4386 1.18315 54.1791 1.80954 54.1791 2.46269V39.403H49.2537V34.4776C49.2537 33.8245 48.9943 33.1981 48.5324 32.7362C48.0706 32.2744 47.4442 32.0149 46.791 32.0149C46.1379 32.0149 45.5115 32.2744 45.0497 32.7362C44.5878 33.1981 44.3284 33.8245 44.3284 34.4776V39.403H36.9403C34.9809 39.403 33.1017 40.1814 31.7162 41.5669C30.3306 42.9524 29.5522 44.8316 29.5522 46.791V49.2537H24.6269C23.9737 49.2537 23.3473 49.5132 22.8855 49.975C22.4236 50.4369 22.1642 51.0633 22.1642 51.7164V76.3433C22.1642 76.9964 22.4236 77.6228 22.8855 78.0847C23.3473 78.5465 23.9737 78.806 24.6269 78.806H29.5522V91.1194C29.5522 91.7725 29.8117 92.3989 30.2735 92.8608C30.7354 93.3226 31.3618 93.5821 32.0149 93.5821H39.403V98.5075H7.38806C5.42862 98.5075 3.54944 99.2859 2.16391 100.671C0.778383 102.057 0 103.936 0 105.896V125.597C0 126.25 0.259461 126.877 0.721304 127.338C1.18315 127.8 1.80954 128.06 2.46269 128.06H4.92537V150.224C4.92537 150.877 5.18483 151.503 5.64668 151.965C6.10852 152.427 6.73491 152.687 7.38806 152.687H17.2388C17.892 152.687 18.5183 152.427 18.9802 151.965C19.442 151.503 19.7015 150.877 19.7015 150.224V128.06H24.6269V150.224C24.6269 150.877 24.8863 151.503 25.3482 151.965C25.81 152.427 26.4364 152.687 27.0896 152.687H66.4925C67.1457 152.687 67.7721 152.427 68.2339 151.965C68.6958 151.503 68.9552 150.877 68.9552 150.224V128.06H73.8806V150.224C73.8806 150.877 74.1401 151.503 74.6019 151.965C75.0637 152.427 75.6901 152.687 76.3433 152.687H86.194C86.8472 152.687 87.4736 152.427 87.9354 151.965C88.3973 151.503 88.6567 150.877 88.6567 150.224V128.06H91.1194C91.7725 128.06 92.3989 127.8 92.8608 127.338C93.3226 126.877 93.5821 126.25 93.5821 125.597V105.896C93.5821 103.936 92.8037 102.057 91.4182 100.671C90.0326 99.2859 88.1535 98.5075 86.194 98.5075H54.1791V93.5821H61.5672C62.2203 93.5821 62.8467 93.3226 63.3085 92.8608C63.7704 92.3989 64.0298 91.7725 64.0298 91.1194V78.806H68.9552C69.6084 78.806 70.2348 78.5465 70.6966 78.0847C71.1585 77.6228 71.4179 76.9964 71.4179 76.3433V61.5672H147.761C148.414 61.5672 149.041 61.3077 149.503 60.8459C149.964 60.384 150.224 59.7576 150.224 59.1045V2.46269C150.224 1.80954 149.964 1.18315 149.503 0.721304C149.041 0.259461 148.414 0 147.761 0ZM14.7761 147.761H9.85075V128.06H14.7761V147.761ZM24.6269 123.134H4.92537V105.896C4.92537 105.242 5.18483 104.616 5.64668 104.154C6.10852 103.692 6.73491 103.433 7.38806 103.433H24.6269V123.134ZM83.7313 147.761H78.806V128.06H83.7313V147.761ZM68.9552 103.433H86.194C86.8472 103.433 87.4736 103.692 87.9354 104.154C88.3973 104.616 88.6567 105.242 88.6567 105.896V123.134H68.9552V103.433ZM59.1045 4.92537H145.299V12.3134H59.1045V4.92537ZM34.4776 46.791C34.4776 46.1379 34.7371 45.5115 35.1989 45.0497C35.6608 44.5878 36.2872 44.3284 36.9403 44.3284H56.6418C57.2949 44.3284 57.9213 44.5878 58.3832 45.0497C58.845 45.5115 59.1045 46.1379 59.1045 46.791V49.2537H34.4776V46.791ZM64.0298 103.433V147.761H29.5522V103.433H64.0298ZM44.3284 98.5075V93.5821H49.2537V98.5075H44.3284ZM59.1045 88.6567H34.4776V78.806H59.1045V88.6567ZM66.4925 73.8806H27.0896V54.1791H66.4925V73.8806ZM145.299 56.6418H71.4179V51.7164C71.4179 51.0633 71.1585 50.4369 70.6966 49.975C70.2348 49.5132 69.6084 49.2537 68.9552 49.2537H64.0298V46.791C64.0235 45.2685 63.547 43.785 62.6653 42.5437C61.7836 41.3023 60.54 40.3636 59.1045 39.8561V17.2388H145.299V56.6418Z" stroke="#4F4F4F" stroke-width="2" mask="url(#path-1-inside-1)"/>
<path d="M85.5707 45.0172L85.5707 45.0173C85.4304 45.3916 85.1791 45.7142 84.8504 45.9418C84.5219 46.1694 84.1317 46.2912 83.7321 46.2911C83.4963 46.2901 83.2624 46.2482 83.0409 46.1671C82.5546 45.9845 82.1605 45.6164 81.9451 45.1437C81.7295 44.6706 81.7105 44.1313 81.8921 43.6442C81.8921 43.644 81.8922 43.6438 81.8923 43.6437L89.28 23.943L89.2803 23.9424C89.4625 23.4546 89.831 23.0592 90.3047 22.8431C90.5393 22.7361 90.7926 22.6764 91.0503 22.6673C91.308 22.6582 91.5649 22.7 91.8064 22.7902C92.2942 22.9724 92.6896 23.3409 92.9057 23.8146C93.1217 24.2884 93.1408 24.8285 92.9586 25.3163C92.9586 25.3163 92.9586 25.3163 92.9586 25.3163L85.5707 45.0172Z" stroke="#4F4F4F"/>
<path d="M103.217 34.7776L103.442 34.4776L103.217 34.1776L96.9373 25.8045C96.7827 25.5983 96.6702 25.3637 96.6062 25.114C96.5422 24.8643 96.5281 24.6045 96.5645 24.3493C96.601 24.0942 96.6873 23.8487 96.8187 23.6269C96.95 23.4051 97.1237 23.2114 97.3299 23.0567C97.5361 22.9021 97.7707 22.7896 98.0204 22.7256C98.2701 22.6616 98.5299 22.6475 98.7851 22.6839C99.0402 22.7204 99.2857 22.8067 99.5075 22.938C99.7293 23.0693 99.923 23.2431 100.078 23.4493L107.466 33.3C107.721 33.6397 107.858 34.053 107.858 34.4776C107.858 34.9023 107.721 35.3155 107.466 35.6552L100.078 45.506C99.923 45.7122 99.7293 45.8859 99.5075 46.0172C99.2857 46.1485 99.0402 46.2349 98.7851 46.2713C98.5299 46.3078 98.2701 46.2936 98.0204 46.2296C97.7707 46.1657 97.5361 46.0532 97.3299 45.8985C96.9135 45.5862 96.6382 45.1212 96.5645 44.6059C96.4909 44.0906 96.625 43.5672 96.9373 43.1507L103.217 34.7776Z" stroke="#4F4F4F"/>
<path d="M71.6336 34.1776L71.4086 34.4776L71.6336 34.7776L77.9134 43.1507C78.0681 43.3569 78.1806 43.5916 78.2446 43.8413C78.3085 44.0909 78.3227 44.3508 78.2863 44.6059C78.2498 44.8611 78.1635 45.1066 78.0321 45.3283C77.9008 45.5501 77.7271 45.7439 77.5209 45.8985C77.3147 46.0532 77.0801 46.1657 76.8304 46.2296C76.5807 46.2936 76.3209 46.3078 76.0657 46.2713C75.8106 46.2349 75.5651 46.1485 75.3433 46.0172C75.1215 45.8859 74.9278 45.7122 74.7732 45.506L67.3851 35.6552C67.1303 35.3155 66.9926 34.9023 66.9926 34.4776C66.9926 34.053 67.1303 33.6397 67.3851 33.3L74.7732 23.4493C75.0855 23.0328 75.5504 22.7575 76.0657 22.6839C76.3209 22.6475 76.5807 22.6616 76.8304 22.7256C77.0801 22.7896 77.3147 22.9021 77.5209 23.0567C77.9373 23.369 78.2126 23.834 78.2863 24.3493C78.3599 24.8646 78.2258 25.3881 77.9134 25.8045L71.6336 34.1776Z" stroke="#4F4F4F"/>
<path d="M135.448 29.0523H115.746C115.226 29.0523 114.727 28.8455 114.358 28.4774C113.99 28.1093 113.784 27.6101 113.784 27.0896C113.784 26.569 113.99 26.0698 114.358 25.7018C114.727 25.3337 115.226 25.1269 115.746 25.1269H135.448C135.968 25.1269 136.468 25.3337 136.836 25.7018C137.204 26.0698 137.41 26.569 137.41 27.0896C137.41 27.6101 137.204 28.1093 136.836 28.4774C136.468 28.8455 135.968 29.0523 135.448 29.0523Z" stroke="#4F4F4F"/>
<path d="M135.448 36.4403H115.746C115.226 36.4403 114.727 36.2335 114.358 35.8654C113.99 35.4973 113.784 34.9981 113.784 34.4776C113.784 33.957 113.99 33.4578 114.358 33.0898C114.727 32.7217 115.226 32.5149 115.746 32.5149H135.448C135.968 32.5149 136.468 32.7217 136.836 33.0898C137.204 33.4578 137.41 33.957 137.41 34.4776C137.41 34.9981 137.204 35.4973 136.836 35.8654C136.468 36.2335 135.968 36.4403 135.448 36.4403Z" stroke="#4F4F4F"/>
<path d="M120.672 43.8284H115.746C115.226 43.8284 114.726 43.6216 114.358 43.2535C113.99 42.8855 113.784 42.3862 113.784 41.8657C113.784 41.3452 113.99 40.8459 114.358 40.4779C114.726 40.1098 115.226 39.903 115.746 39.903H120.672C121.192 39.903 121.691 40.1098 122.059 40.4779C122.428 40.8459 122.634 41.3452 122.634 41.8657C122.634 42.3862 122.428 42.8855 122.059 43.2535C121.691 43.6216 121.192 43.8284 120.672 43.8284Z" stroke="#4F4F4F"/>
<path d="M128.06 39.903H130.522C131.043 39.903 131.542 40.1098 131.91 40.4779C132.278 40.8459 132.485 41.3452 132.485 41.8657C132.485 42.3862 132.278 42.8855 131.91 43.2535C131.542 43.6216 131.043 43.8284 130.522 43.8284H128.06C127.539 43.8284 127.04 43.6216 126.672 43.2535C126.304 42.8855 126.097 42.3862 126.097 41.8657C126.097 41.3452 126.304 40.8459 126.672 40.4779C127.04 40.1098 127.539 39.903 128.06 39.903Z" stroke="#4F4F4F"/>
<path d="M60.4686 69.7571C59.3359 70.5139 58.0042 70.9179 56.6418 70.9179C54.815 70.9179 53.063 70.1922 51.7712 68.9004C50.4795 67.6087 49.7538 65.8567 49.7538 64.0298C49.7538 62.6675 50.1578 61.3358 50.9146 60.203C51.6715 59.0703 52.7473 58.1875 54.0059 57.6661C55.2645 57.1448 56.6495 57.0084 57.9856 57.2741C59.3218 57.5399 60.5491 58.1959 61.5124 59.1593C62.4758 60.1226 63.1318 61.3499 63.3976 62.6861C63.6633 64.0222 63.5269 65.4072 63.0056 66.6658C62.4842 67.9244 61.6014 69.0002 60.4686 69.7571ZM58.2878 61.5665C57.8006 61.2409 57.2278 61.0672 56.6418 61.0672C55.8561 61.0672 55.1025 61.3793 54.5469 61.9349C53.9913 62.4905 53.6792 63.2441 53.6792 64.0298C53.6792 64.6158 53.8529 65.1886 54.1785 65.6758C54.504 66.163 54.9667 66.5428 55.5081 66.767C56.0494 66.9913 56.6451 67.0499 57.2198 66.9356C57.7945 66.8213 58.3224 66.5391 58.7368 66.1248C59.1511 65.7104 59.4333 65.1825 59.5476 64.6078C59.6619 64.0331 59.6032 63.4374 59.379 62.8961C59.1548 62.3547 58.775 61.892 58.2878 61.5665Z" stroke="#4F4F4F"/>
<path d="M40.7671 69.7571C39.6344 70.5139 38.3026 70.9179 36.9403 70.9179C35.1135 70.9179 33.3615 70.1922 32.0697 68.9004C30.7779 67.6087 30.0522 65.8567 30.0522 64.0298C30.0522 62.6675 30.4562 61.3358 31.2131 60.203C31.97 59.0703 33.0457 58.1875 34.3044 57.6661C35.563 57.1448 36.9479 57.0084 38.2841 57.2741C39.6203 57.5399 40.8476 58.1959 41.8109 59.1593C42.7742 60.1226 43.4302 61.3499 43.696 62.6861C43.9618 64.0222 43.8254 65.4072 43.304 66.6658C42.7827 67.9244 41.8998 69.0002 40.7671 69.7571ZM38.5863 61.5665C38.0991 61.2409 37.5263 61.0672 36.9403 61.0672C36.1546 61.0672 35.401 61.3793 34.8454 61.9349C34.2898 62.4905 33.9776 63.2441 33.9776 64.0298C33.9776 64.6158 34.1514 65.1886 34.4769 65.6758C34.8025 66.163 35.2652 66.5428 35.8065 66.767C36.3479 66.9913 36.9436 67.0499 37.5183 66.9356C38.093 66.8213 38.6209 66.5391 39.0352 66.1248C39.4496 65.7104 39.7317 65.1825 39.8461 64.6078C39.9604 64.0331 39.9017 63.4374 39.6775 62.8961C39.4532 62.3547 39.0735 61.892 38.5863 61.5665Z" stroke="#4F4F4F"/>
<path d="M53.1043 85.1191L53.4073 85.4222L53.1043 85.1191C52.7362 85.4872 52.237 85.694 51.7164 85.694H41.8657C41.3452 85.694 40.8459 85.4872 40.4779 85.1191C40.1098 84.7511 39.903 84.2518 39.903 83.7313C39.903 83.2108 40.1098 82.7115 40.4779 82.3435C40.8459 81.9754 41.3452 81.7686 41.8657 81.7686H51.7164C52.237 81.7686 52.7362 81.9754 53.1043 82.3435C53.4724 82.7115 53.6791 83.2108 53.6791 83.7313C53.6791 84.2518 53.4724 84.7511 53.1043 85.1191Z" stroke="#4F4F4F"/>
<path d="M45.7162 144.224L46.0193 144.527L45.7162 144.224C45.3481 144.592 44.8489 144.799 44.3284 144.799H34.4776C33.9571 144.799 33.4579 144.592 33.0898 144.224C32.7217 143.856 32.515 143.356 32.515 142.836C32.515 142.315 32.7217 141.816 33.0898 141.448C33.4579 141.08 33.9571 140.873 34.4776 140.873H44.3284C44.8489 140.873 45.3481 141.08 45.7162 141.448C46.0843 141.816 46.2911 142.315 46.2911 142.836C46.2911 143.356 46.0843 143.856 45.7162 144.224Z" stroke="#4F4F4F"/>
<path d="M54.1792 144.799H51.7165C51.1959 144.799 50.6967 144.592 50.3286 144.224C49.9606 143.856 49.7538 143.356 49.7538 142.836C49.7538 142.315 49.9606 141.816 50.3286 141.448C50.6967 141.08 51.1959 140.873 51.7165 140.873H54.1792C54.6997 140.873 55.1989 141.08 55.567 141.448C55.9351 141.816 56.1418 142.315 56.1418 142.836C56.1418 143.356 55.9351 143.856 55.567 144.224C55.1989 144.592 54.6997 144.799 54.1792 144.799Z" stroke="#4F4F4F"/>
</svg>
