<svg width="702" height="692" viewBox="0 0 702 692" fill="none" xmlns="http://www.w3.org/2000/svg">
<path d="M11 1H701V691H11V1Z" stroke="#F2F2F2" stroke-miterlimit="10"/>
<path d="M701 576H11" stroke="#F2F2F2" stroke-miterlimit="10"/>
<path d="M701 461H11" stroke="#F2F2F2" stroke-miterlimit="10"/>
<path d="M701 346H11" stroke="#F2F2F2" stroke-miterlimit="10"/>
<path d="M701 231H11" stroke="#F2F2F2" stroke-miterlimit="10"/>
<path d="M701 116H11" stroke="#F2F2F2" stroke-miterlimit="10"/>
<path d="M126 1V691" stroke="#F2F2F2" stroke-miterlimit="10"/>
<path d="M241 1V691" stroke="#F2F2F2" stroke-miterlimit="10"/>
<path d="M356 1V691" stroke="#F2F2F2" stroke-miterlimit="10"/>
<path d="M471 1V691" stroke="#F2F2F2" stroke-miterlimit="10"/>
<path d="M586 1V691" stroke="#F2F2F2" stroke-miterlimit="10"/>
<rect x="274.5" y="374.5" width="283" height="60" rx="16.5" stroke="#F2F2F2"/>
<circle cx="12" cy="346" r="12" fill="url(#paint0_linear)"/>
<circle cx="12" cy="461" r="12" fill="url(#paint1_linear)"/>
<circle cx="12" cy="576" r="12" fill="url(#paint2_linear)"/>
<circle cx="126" cy="346" r="12" fill="url(#paint3_linear)"/>
<circle cx="126" cy="461" r="12" fill="url(#paint4_linear)"/>
<circle cx="126" cy="576" r="12" fill="url(#paint5_linear)"/>
<circle cx="240" cy="346" r="12" fill="url(#paint6_linear)"/>
<circle cx="240" cy="461" r="12" fill="url(#paint7_linear)"/>
<circle cx="240" cy="576" r="12" fill="url(#paint8_linear)"/>
<path opacity="0.5" d="M399.587 147.638L399.59 147.645C409.392 174.552 439.621 186.791 464.952 174.556L464.954 174.554C504.125 155.402 545.742 196.898 527.34 236.839C515.082 262.135 528.167 292.301 554.296 302.082L554.308 302.087C595.885 316.454 595.912 374.738 554.3 389.916C527.347 399.7 515.085 429.877 527.343 455.165L527.344 455.168C546.526 494.263 504.966 535.814 464.948 517.442C439.609 505.206 409.39 518.266 399.592 544.35L399.587 544.363C385.195 585.867 326.807 585.894 311.602 544.355C301.801 517.451 271.575 505.211 246.246 517.441C207.043 535.005 165.47 493.464 184.656 454.361L184.657 454.358C196.919 429.061 183.835 398.892 157.704 389.111L157.692 389.106C116.115 374.739 116.088 316.455 157.7 301.277C184.653 291.493 196.915 261.316 184.657 236.028L184.656 236.025C165.465 196.912 207.049 155.394 246.237 174.554L246.239 174.555C271.579 186.795 301.801 173.735 311.6 147.65L311.601 147.646C326.806 106.106 385.195 106.133 399.587 147.638Z" stroke="#F2F2F2"/>
<path d="M278 264H558" stroke="#F2F2F2" stroke-width="20" stroke-linecap="round" stroke-linejoin="round"/>
<path d="M278 314L664 314" stroke="#F2F2F2" stroke-width="20" stroke-linecap="round" stroke-linejoin="round"/>
<defs>
<linearGradient id="paint0_linear" x1="0" y1="334" x2="24" y2="346" gradientUnits="userSpaceOnUse">
<stop stop-color="#FDFBFB"/>
<stop offset="1" stop-color="#EBEDEE"/>
</linearGradient>
<linearGradient id="paint1_linear" x1="0" y1="449" x2="24" y2="461" gradientUnits="userSpaceOnUse">
<stop stop-color="#FDFBFB"/>
<stop offset="1" stop-color="#EBEDEE"/>
</linearGradient>
<linearGradient id="paint2_linear" x1="0" y1="564" x2="24" y2="576" gradientUnits="userSpaceOnUse">
<stop stop-color="#FDFBFB"/>
<stop offset="1" stop-color="#EBEDEE"/>
</linearGradient>
<linearGradient id="paint3_linear" x1="114" y1="334" x2="138" y2="346" gradientUnits="userSpaceOnUse">
<stop stop-color="#FDFBFB"/>
<stop offset="1" stop-color="#EBEDEE"/>
</linearGradient>
<linearGradient id="paint4_linear" x1="114" y1="449" x2="138" y2="461" gradientUnits="userSpaceOnUse">
<stop stop-color="#FDFBFB"/>
<stop offset="1" stop-color="#EBEDEE"/>
</linearGradient>
<linearGradient id="paint5_linear" x1="114" y1="564" x2="138" y2="576" gradientUnits="userSpaceOnUse">
<stop stop-color="#FDFBFB"/>
<stop offset="1" stop-color="#EBEDEE"/>
</linearGradient>
<linearGradient id="paint6_linear" x1="228" y1="334" x2="252" y2="346" gradientUnits="userSpaceOnUse">
<stop stop-color="#FDFBFB"/>
<stop offset="1" stop-color="#EBEDEE"/>
</linearGradient>
<linearGradient id="paint7_linear" x1="228" y1="449" x2="252" y2="461" gradientUnits="userSpaceOnUse">
<stop stop-color="#FDFBFB"/>
<stop offset="1" stop-color="#EBEDEE"/>
</linearGradient>
<linearGradient id="paint8_linear" x1="228" y1="564" x2="252" y2="576" gradientUnits="userSpaceOnUse">
<stop stop-color="#FDFBFB"/>
<stop offset="1" stop-color="#EBEDEE"/>
</linearGradient>
</defs>
</svg>
